<svg width="30" height="30" viewBox="0 0 30 30" fill="none" xmlns="http://www.w3.org/2000/svg">
<path d="M11.7534 22.5C18.3572 22.5 21.9692 16.7286 21.9692 11.7236C21.9692 11.5597 21.9692 11.3965 21.9587 11.234C22.6614 10.6979 23.268 10.034 23.75 9.27352C23.0948 9.57997 22.3996 9.78084 21.6878 9.86942C22.4374 9.39614 22.9983 8.65164 23.2663 7.77454C22.5615 8.21575 21.7905 8.52667 20.9864 8.69387C20.4451 8.08666 19.7291 7.68458 18.9493 7.54985C18.1695 7.41513 17.3694 7.55526 16.6727 7.94857C15.976 8.34188 15.4216 8.96645 15.0953 9.72561C14.769 10.4848 14.689 11.3362 14.8677 12.1482C13.4402 12.0726 12.0438 11.6813 10.769 10.9996C9.49417 10.3178 8.36952 9.36095 7.468 8.19101C7.00886 9.0248 6.86824 10.0118 7.07476 10.9512C7.28128 11.8905 7.81942 12.7115 8.5796 13.2469C8.00819 13.2293 7.44922 13.0667 6.95 12.7729V12.8209C6.95023 13.6953 7.23718 14.5428 7.7622 15.2195C8.28721 15.8962 9.01796 16.3605 9.8305 16.5336C9.30191 16.6857 8.7473 16.7079 8.2093 16.5986C8.43882 17.3511 8.88552 18.0091 9.48695 18.4807C10.0884 18.9523 10.8145 19.2139 11.5637 19.2288C10.8193 19.8461 9.96679 20.3024 9.05501 20.5718C8.14323 20.8412 7.19005 20.9183 6.25 20.7987C7.89196 21.9102 9.80244 22.4998 11.7534 22.497" fill="white"/>
</svg>
