<svg width="30" height="30" viewBox="0 0 30 30" fill="none" xmlns="http://www.w3.org/2000/svg">
<path fill-rule="evenodd" clip-rule="evenodd" d="M15.3343 7.5C13.2073 7.5 12.941 7.50918 12.1055 7.54591C11.2731 7.58263 10.7008 7.71729 10.205 7.9101C9.68776 8.1121 9.25011 8.37836 8.81552 8.81601C8.37787 9.2506 8.11161 9.68824 7.90962 10.2024C7.71681 10.7013 7.58214 11.2705 7.54542 12.103C7.50869 12.9415 7.49951 13.2078 7.49951 15.3348C7.49951 17.4619 7.50869 17.7281 7.54542 18.5636C7.58214 19.3961 7.71681 19.9684 7.90962 20.4642C8.11161 20.9814 8.37787 21.4191 8.81552 21.8537C9.25011 22.2882 9.68776 22.5576 10.2019 22.7565C10.7008 22.9493 11.27 23.084 12.1025 23.1207C12.938 23.1574 13.2042 23.1666 15.3313 23.1666C17.4583 23.1666 17.7246 23.1574 18.5601 23.1207C19.3925 23.084 19.9649 22.9493 20.4606 22.7565C20.9748 22.5576 21.4125 22.2882 21.847 21.8537C22.2816 21.4191 22.551 20.9814 22.7499 20.4673C22.9427 19.9684 23.0774 19.3991 23.1141 18.5667C23.1508 17.7312 23.16 17.4649 23.16 15.3379C23.16 13.2109 23.1508 12.9446 23.1141 12.1091C23.0774 11.2766 22.9427 10.7043 22.7499 10.2085C22.5571 9.68824 22.2908 9.2506 21.8532 8.81601C21.4186 8.38142 20.9809 8.1121 20.4668 7.91316C19.9679 7.72035 19.3987 7.58569 18.5662 7.54897C17.7276 7.50918 17.4614 7.5 15.3343 7.5ZM15.3343 11.3101C13.1124 11.3101 11.3098 13.1127 11.3098 15.3346C11.3098 17.5565 13.1124 19.3592 15.3343 19.3592C17.5562 19.3592 19.3589 17.5565 19.3589 15.3346C19.3589 13.1127 17.5562 11.3101 15.3343 11.3101ZM15.3343 17.9452C13.8928 17.9452 12.7237 16.7761 12.7237 15.3346C12.7237 13.8931 13.8928 12.724 15.3343 12.724C16.7758 12.724 17.9449 13.8931 17.9449 15.3346C17.9449 16.7761 16.7758 17.9452 15.3343 17.9452ZM19.518 12.0955C20.0352 12.0955 20.4576 11.6762 20.4576 11.1559C20.4576 10.6387 20.0352 10.2163 19.518 10.2163C19.0008 10.2163 18.5785 10.6356 18.5785 11.1559C18.5785 11.6731 18.9977 12.0955 19.518 12.0955Z" fill="white"/>
</svg>
