<svg width="30" height="30" viewBox="0 0 30 30" fill="none" xmlns="http://www.w3.org/2000/svg">
<path fill-rule="evenodd" clip-rule="evenodd" d="M25.1492 7.50474C25.5117 7.86965 25.7721 8.32338 25.9042 8.82053C26.3928 10.6555 26.3928 14.4821 26.3928 14.4821C26.3928 14.4821 26.3928 18.3086 25.9042 20.1436C25.7721 20.6407 25.5117 21.0945 25.1492 21.4594C24.7866 21.8243 24.3345 22.0875 23.8382 22.2228C22.0113 22.7141 14.7086 22.7141 14.7086 22.7141C14.7086 22.7141 7.40599 22.7141 5.57901 22.2228C5.08271 22.0875 4.63066 21.8243 4.26809 21.4594C3.90552 21.0945 3.64514 20.6407 3.51303 20.1436C3.02441 18.3086 3.02441 14.4821 3.02441 14.4821C3.02441 14.4821 3.02441 10.6555 3.51303 8.82053C3.64514 8.32338 3.90552 7.86965 4.26809 7.50474C4.63066 7.13984 5.08271 6.87657 5.57901 6.74127C7.40599 6.25 14.7086 6.25 14.7086 6.25C14.7086 6.25 22.0113 6.25 23.8382 6.74127C24.3345 6.87657 24.7866 7.13984 25.1492 7.50474ZM18.4263 14.4783L12.3187 11.0036V17.9531L18.4263 14.4783Z" fill="white"/>
</svg>
